
<svg width="980" height="250" viewBox="0 0 980 250" fill="none" xmlns="http://www.w3.org/2000/svg">
<g clip-path="url(#clip0)">
<rect width="980" height="250" fill="url(#paint0_radial)"/>
<path d="M430.52 107.057C427.772 107.057 425.364 106.458 423.297 105.259C421.229 104.061 419.633 102.407 418.507 100.297C417.382 98.1865 416.793 95.7638 416.741 93.0284C416.793 90.2931 417.382 87.8703 418.507 85.7602C419.633 83.6501 421.229 81.9959 423.297 80.7975C425.364 79.5992 427.772 79 430.52 79C433.268 79 435.663 79.5992 437.704 80.7975C439.772 81.9959 441.368 83.6631 442.493 85.7993C443.645 87.9094 444.247 90.3191 444.299 93.0284C444.247 95.7377 443.645 98.1605 442.493 100.297C441.368 102.407 439.772 104.061 437.704 105.259C435.663 106.458 433.268 107.057 430.52 107.057ZM430.52 103.735C432.614 103.735 434.433 103.266 435.977 102.329C437.521 101.391 438.699 100.114 439.51 98.4991C440.321 96.884 440.727 95.0604 440.727 93.0284C440.727 90.9964 440.321 89.1729 439.51 87.5577C438.699 85.9426 437.521 84.6661 435.977 83.7282C434.433 82.7904 432.614 82.3215 430.52 82.3215C428.4 82.3215 426.568 82.7904 425.024 83.7282C423.506 84.6661 422.341 85.9426 421.53 87.5577C420.719 89.1729 420.313 90.9964 420.313 93.0284C420.313 95.0604 420.719 96.884 421.53 98.4991C422.341 100.114 423.506 101.391 425.024 102.329C426.568 103.266 428.4 103.735 430.52 103.735Z" fill="#94A8A5"/>
<path d="M452.799 106.861C452.302 106.861 451.883 106.692 451.543 106.353C451.203 106.015 451.033 105.598 451.033 105.103L451.033 81.1883C451.033 80.6933 451.203 80.2765 451.543 79.9378C451.883 79.5731 452.302 79.3908 452.799 79.3908L461.75 79.3908C464.236 79.3908 466.265 79.8076 467.835 80.6412C469.405 81.4748 470.531 82.5429 471.211 83.8455C471.891 85.148 472.232 86.5548 472.232 88.0657C472.232 89.5767 471.891 90.9834 471.211 92.286C470.531 93.5885 469.405 94.6566 467.835 95.4902C466.265 96.3239 464.236 96.7407 461.75 96.7407L454.605 96.7407L454.605 105.103C454.605 105.598 454.422 106.015 454.056 106.353C453.715 106.692 453.297 106.861 452.799 106.861ZM461.397 93.3801C464.066 93.3801 465.937 92.8721 467.01 91.8561C468.11 90.8401 468.659 89.5767 468.659 88.0657C468.659 86.5548 468.11 85.2913 467.01 84.2753C465.937 83.2593 464.066 82.7513 461.397 82.7513L454.605 82.7513L454.605 93.3801L461.397 93.3801Z" fill="#94A8A5"/>
<path d="M479.96 106.666C479.463 106.666 479.044 106.497 478.704 106.158C478.364 105.819 478.194 105.403 478.194 104.908L478.194 81.1883C478.194 80.6933 478.364 80.2765 478.704 79.9378C479.044 79.5731 479.463 79.3908 479.96 79.3908L495.703 79.3908C496.174 79.3908 496.566 79.5601 496.88 79.8988C497.221 80.2114 497.391 80.6021 497.391 81.071C497.391 81.54 497.221 81.9307 496.88 82.2433C496.566 82.556 496.174 82.7123 495.703 82.7123L481.766 82.7123L481.766 91.3481L494.289 91.3481C494.76 91.3481 495.153 91.5175 495.467 91.8561C495.807 92.1687 495.977 92.5595 495.977 93.0284C495.977 93.4973 495.807 93.8881 495.467 94.2007C495.153 94.5133 494.76 94.6696 494.289 94.6696L481.766 94.6696L481.766 103.345L495.703 103.345C496.174 103.345 496.566 103.514 496.88 103.853C497.221 104.165 497.391 104.556 497.391 105.025C497.391 105.494 497.221 105.885 496.88 106.197C496.566 106.51 496.174 106.666 495.703 106.666L479.96 106.666Z" fill="#94A8A5"/>
<path d="M505.78 106.861C505.282 106.861 504.864 106.692 504.523 106.353C504.183 106.015 504.013 105.598 504.013 105.103L504.013 81.7744C504.013 81.071 504.262 80.4719 504.759 79.9769C505.256 79.4559 505.858 79.1954 506.565 79.1954L507.075 79.1954C507.913 79.1954 508.632 79.5861 509.234 80.3677L524.348 102.094L524.348 80.9929C524.348 80.4979 524.518 80.0811 524.859 79.7425C525.199 79.3777 525.618 79.1954 526.115 79.1954C526.612 79.1954 527.031 79.3777 527.371 79.7425C527.738 80.0811 527.921 80.4979 527.921 80.9929L527.921 104.321C527.921 105.025 527.659 105.624 527.136 106.119C526.638 106.614 526.036 106.861 525.33 106.861L524.859 106.861C524.44 106.861 524.047 106.77 523.681 106.588C523.315 106.38 523.014 106.119 522.778 105.806L507.586 83.9627L507.586 105.103C507.586 105.598 507.402 106.015 507.036 106.353C506.696 106.692 506.277 106.861 505.78 106.861Z" fill="#94A8A5"/>
<path d="M419.135 170.805C418.612 170.805 418.18 170.635 417.84 170.297C417.526 169.958 417.369 169.541 417.369 169.046C417.369 168.838 417.434 168.577 417.565 168.265L427.576 144.741C427.785 144.272 428.073 143.894 428.439 143.607C428.832 143.295 429.303 143.139 429.852 143.139L430.245 143.139C430.795 143.139 431.253 143.295 431.619 143.607C432.012 143.894 432.313 144.272 432.522 144.741L442.533 168.265C442.663 168.577 442.729 168.838 442.729 169.046C442.729 169.541 442.559 169.958 442.218 170.297C441.904 170.635 441.486 170.805 440.962 170.805C440.596 170.805 440.256 170.713 439.942 170.531C439.654 170.323 439.431 170.049 439.274 169.71L436.722 163.615L423.375 163.615L420.823 169.71C420.666 170.049 420.431 170.323 420.117 170.531C419.829 170.713 419.502 170.805 419.135 170.805ZM424.749 160.371L435.348 160.371L430.049 147.671L424.749 160.371Z" fill="#232A29"/>
<path d="M459.631 171C457.772 171 455.98 170.609 454.252 169.828C452.525 169.046 451.112 167.861 450.013 166.272C448.913 164.657 448.364 162.69 448.364 160.371L448.364 144.936C448.364 144.441 448.534 144.024 448.874 143.686C449.214 143.321 449.633 143.139 450.13 143.139C450.628 143.139 451.046 143.321 451.387 143.686C451.753 144.024 451.936 144.441 451.936 144.936L451.936 160.488C451.936 162.051 452.289 163.38 452.996 164.474C453.729 165.568 454.684 166.389 455.862 166.936C457.04 167.483 458.296 167.757 459.631 167.757C460.965 167.757 462.222 167.483 463.399 166.936C464.577 166.389 465.519 165.568 466.226 164.474C466.959 163.38 467.325 162.051 467.325 160.488L467.325 144.936C467.325 144.441 467.495 144.024 467.835 143.686C468.176 143.321 468.594 143.139 469.092 143.139C469.589 143.139 470.008 143.321 470.348 143.686C470.714 144.024 470.897 144.441 470.897 144.936L470.897 160.371C470.897 162.69 470.348 164.657 469.249 166.272C468.149 167.861 466.736 169.046 465.009 169.828C463.281 170.609 461.489 171 459.631 171Z" fill="#232A29"/>
<path d="M487.221 170.805C486.724 170.805 486.305 170.635 485.965 170.297C485.625 169.958 485.454 169.541 485.454 169.046L485.454 146.655L477.446 146.655C476.975 146.655 476.582 146.499 476.268 146.186C475.954 145.874 475.797 145.483 475.797 145.014C475.797 144.545 475.954 144.155 476.268 143.842C476.582 143.503 476.975 143.334 477.446 143.334L496.996 143.334C497.467 143.334 497.86 143.503 498.174 143.842C498.514 144.155 498.684 144.545 498.684 145.014C498.684 145.483 498.514 145.874 498.174 146.186C497.86 146.499 497.467 146.655 496.996 146.655L489.027 146.655L489.027 169.046C489.027 169.541 488.844 169.958 488.477 170.297C488.137 170.635 487.718 170.805 487.221 170.805Z" fill="#232A29"/>
<path d="M514.974 171C512.226 171 509.819 170.401 507.751 169.202C505.683 168.004 504.087 166.35 502.962 164.24C501.836 162.13 501.247 159.707 501.195 156.972C501.247 154.236 501.836 151.813 502.962 149.703C504.087 147.593 505.683 145.939 507.751 144.741C509.819 143.542 512.226 142.943 514.974 142.943C517.722 142.943 520.117 143.542 522.158 144.741C524.226 145.939 525.822 147.606 526.948 149.742C528.099 151.853 528.701 154.262 528.754 156.972C528.701 159.681 528.099 162.104 526.948 164.24C525.822 166.35 524.226 168.004 522.158 169.202C520.117 170.401 517.722 171 514.974 171ZM514.974 167.678C517.068 167.678 518.887 167.21 520.431 166.272C521.975 165.334 523.153 164.057 523.964 162.442C524.775 160.827 525.181 159.004 525.181 156.972C525.181 154.94 524.775 153.116 523.964 151.501C523.153 149.886 521.975 148.609 520.431 147.671C518.887 146.734 517.068 146.265 514.974 146.265C512.854 146.265 511.022 146.734 509.478 147.671C507.96 148.609 506.796 149.886 505.984 151.501C505.173 153.116 504.767 154.94 504.767 156.972C504.767 159.004 505.173 160.827 505.984 162.442C506.796 164.057 507.96 165.334 509.478 166.272C511.022 167.21 512.854 167.678 514.974 167.678Z" fill="#232A29"/>
<path d="M545.851 170.805C545.353 170.805 544.935 170.635 544.594 170.297C544.254 169.958 544.084 169.541 544.084 169.046L544.084 145.718C544.084 145.014 544.333 144.415 544.83 143.92C545.327 143.399 545.929 143.139 546.636 143.139L547.931 143.139C548.455 143.139 548.926 143.295 549.344 143.607C549.789 143.92 550.117 144.311 550.326 144.78L559.237 166.897L568.149 144.78C568.358 144.311 568.672 143.92 569.091 143.607C569.536 143.295 570.02 143.139 570.543 143.139L571.839 143.139C572.545 143.139 573.147 143.399 573.645 143.92C574.142 144.415 574.391 145.014 574.391 145.718L574.391 169.046C574.391 169.541 574.22 169.958 573.88 170.297C573.54 170.635 573.121 170.805 572.624 170.805C572.127 170.805 571.695 170.635 571.328 170.297C570.988 169.958 570.818 169.541 570.818 169.046L570.818 146.851L561.75 169.163C561.54 169.658 561.2 170.062 560.729 170.375C560.284 170.661 559.787 170.805 559.237 170.805C558.688 170.805 558.177 170.661 557.706 170.375C557.261 170.062 556.934 169.658 556.725 169.163L547.656 146.851L547.656 169.046C547.656 169.541 547.473 169.958 547.107 170.297C546.767 170.635 546.348 170.805 545.851 170.805Z" fill="#232A29"/>
<path d="M585.258 170.609C584.577 170.609 583.988 170.375 583.491 169.906C583.02 169.411 582.785 168.825 582.785 168.147L582.785 144.936C582.785 144.441 582.955 144.024 583.295 143.686C583.635 143.321 584.054 143.139 584.551 143.139C585.048 143.139 585.467 143.321 585.807 143.686C586.174 144.024 586.357 144.441 586.357 144.936L586.357 167.053L599.194 167.053C599.691 167.053 600.11 167.236 600.45 167.6C600.817 167.939 601 168.356 601 168.851C601 169.346 600.817 169.763 600.45 170.101C600.11 170.44 599.691 170.609 599.194 170.609L585.258 170.609Z" fill="#232A29"/>
<rect x="541.844" y="123.007" width="2.84193" height="214.844" transform="rotate(90 541.844 123.007)" fill="url(#paint1_radial)"/>
<g filter="url(#filter0_d)">
<path d="M541.844 123.007L541.844 126.007L327.844 126.007L327.844 123.007L541.844 123.007Z" fill="url(#paint2_radial)" fill-opacity="0.7"/>
</g>
<ellipse cx="515.078" cy="156.755" rx="3.92572" ry="3.90764" fill="#232A29"/>
</g>
<defs>
<filter id="filter0_d" x="323.844" y="121.007" width="222" height="11" filterUnits="userSpaceOnUse" color-interpolation-filters="sRGB">
<feFlood flood-opacity="0" result="BackgroundImageFix"/>
<feColorMatrix in="SourceAlpha" type="matrix" values="0 0 0 0 0 0 0 0 0 0 0 0 0 0 0 0 0 0 127 0"/>
<feOffset dy="2"/>
<feGaussianBlur stdDeviation="2"/>
<feColorMatrix type="matrix" values="0 0 0 0 0 0 0 0 0 0 0 0 0 0 0 0 0 0 0.12 0"/>
<feBlend mode="normal" in2="BackgroundImageFix" result="effect1_dropShadow"/>
<feBlend mode="normal" in="SourceGraphic" in2="effect1_dropShadow" result="shape"/>
</filter>
<radialGradient id="paint0_radial" cx="0" cy="0" r="1" gradientUnits="userSpaceOnUse" gradientTransform="translate(490 125) rotate(90) scale(125 490)">
<stop stop-color="#F4F7F6"/>
<stop offset="0.388917" stop-color="#F4F7F6" stop-opacity="0.8"/>
<stop offset="0.994475" stop-color="#F4F7F6" stop-opacity="0"/>
</radialGradient>
<radialGradient id="paint1_radial" cx="0" cy="0" r="1" gradientUnits="userSpaceOnUse" gradientTransform="translate(543.265 230.429) rotate(90) scale(107.422 1.42096)">
<stop stop-color="white"/>
<stop offset="0.530387" stop-color="white"/>
<stop offset="1" stop-color="white" stop-opacity="0"/>
</radialGradient>
<radialGradient id="paint2_radial" cx="0" cy="0" r="1" gradientUnits="userSpaceOnUse" gradientTransform="translate(449 123.5) rotate(-180) scale(93 1.22258)">
<stop stop-color="#94A8A5"/>
<stop offset="0.530387" stop-color="#94A8A5"/>
<stop offset="1" stop-color="#9AABAD" stop-opacity="0"/>
</radialGradient>
<clipPath id="clip0">
<rect width="980" height="250" fill="white"/>
</clipPath>
</defs>
</svg>
